HIERARCHY
ROOT Hips
{
  OFFSET -33.9132 29.2015 117.021
  CHANNELS 6 Xposition Yposition Zposition Zrotation Xrotation Yrotation
  JOINT LeftUpLeg
  {
    OFFSET 8.64259 1.95398 -2.38835
    CHANNELS 3 Zrotation Xrotation Yrotation
    JOINT LeftLeg
    {
      OFFSET 43.7702 0 0
      CHANNELS 3 Zrotation Xrotation Yrotation
      JOINT LeftFoot
      {
        OFFSET 40.6238 0 0
        CHANNELS 3 Zrotation Xrotation Yrotation
        JOINT LeftToeBase
        {
          OFFSET 12.7242 0 0
          CHANNELS 3 Zrotation Xrotation Yrotation
          End Site
          {
            OFFSET 0 0 0
          }
        }
      }
    }
  }
  JOINT RightUpLeg
  {
    OFFSET -8.2249 1.95398 -2.59336
    CHANNELS 3 Zrotation Xrotation Yrotation
    JOINT RightLeg
    {
      OFFSET 43.5653 0 0
      CHANNELS 3 Zrotation Xrotation Yrotation
      JOINT RightFoot
      {
        OFFSET 40.6238 0 0
        CHANNELS 3 Zrotation Xrotation Yrotation
        JOINT RightToeBase
        {
          OFFSET 12.7242 0 0
          CHANNELS 3 Zrotation Xrotation Yrotation
          End Site
          {
            OFFSET 0 0 0
          }
        }
      }
    }
  }
  JOINT Spine
  {
    OFFSET 0.165834 0.87714 6.61349
    CHANNELS 3 Zrotation Xrotation Yrotation
    JOINT Spine1
    {
      OFFSET 7.38963 1.71661e-005 0
      CHANNELS 3 Zrotation Xrotation Yrotation
      JOINT Spine2
      {
        OFFSET 11.9445 1.14441e-005 0
        CHANNELS 3 Zrotation Xrotation Yrotation
        JOINT Spine3
        {
          OFFSET 14.7254 4.19617e-005 0
          CHANNELS 3 Zrotation Xrotation Yrotation
          JOINT Spine4
          {
            OFFSET 10.9679 0 0
            CHANNELS 3 Zrotation Xrotation Yrotation
            JOINT RightShoulder
            {
              OFFSET 2.46616 -1.6653 3.69651
              CHANNELS 3 Zrotation Xrotation Yrotation
              JOINT RightArm
              {
                OFFSET 13.0012 0 0
                CHANNELS 3 Zrotation Xrotation Yrotation
                JOINT RightForeArm
                {
                  OFFSET 28.7848 1.62311e-005 0
                  CHANNELS 3 Zrotation Xrotation Yrotation
                  JOINT RightHand
                  {
                    OFFSET 26.5688 1.62095e-005 0
                    CHANNELS 3 Zrotation Xrotation Yrotation
                    End Site
                    {
                      OFFSET 0 0 0
                    }
                  }
                }
              }
            }
            JOINT LeftShoulder
            {
              OFFSET 2.38034 -1.29275 -3.7523
              CHANNELS 3 Zrotation Xrotation Yrotation
              JOINT LeftArm
              {
                OFFSET 16.3182 6.07031e-005 0
                CHANNELS 3 Zrotation Xrotation Yrotation
                JOINT LeftForeArm
                {
                  OFFSET 27.0901 0 0
                  CHANNELS 3 Zrotation Xrotation Yrotation
                  JOINT LeftHand
                  {
                    OFFSET 24.5451 1.51738e-005 0
                    CHANNELS 3 Zrotation Xrotation Yrotation
                    End Site
                    {
                      OFFSET 0 0 0
                    }
                  }
                }
              }
            }
            JOINT Neck
            {
              OFFSET 5.0226 -0.0266342 0
              CHANNELS 3 Zrotation Xrotation Yrotation
              JOINT Head
              {
                OFFSET 6.69364 2.86102e-005 0
                CHANNELS 3 Zrotation Xrotation Yrotation
                End Site
                {
                  OFFSET 0 0 0
                }
              }
            }
          }
        }
      }
    }
  }
}
MOTION
Frames:	19
Frame Time:	0.0416667
35.1089 8.92896 41.7822 4.15305 -9.88915 -1.07122 -176.096 -7.78384 91.4397 -20.7708 37.041 4.03911 90.8724 23.0824 1.50168 6.69879 -12.8809 2.63041 179.214 -14.5328 93.2324 -10.327 -19.2258 -6.85402 86.552 -21.7944 -4.46425 42.0216 -5.39219 -5.09877 1.2678 9.26728 -91.2044 8.35557 1.99947 -2.50228 -3.31642 1.88745 -2.58781 -25.8528 2.65894 -1.78579 -5.84009 2.65895 -1.78579 105.556 18.684 -47.0779 20.5936 -8.7946 15.4596 -13.0458 5.91647 -125.86 73.7249 -50.778 -69.1529 -69.5828 -16.7897 116.866 -23.282 31.1894 -36.1116 134.981 33.4266 -95.3611 -6.87535 9.74099 -66.2049 68.1189 3.50018 10.8526 -7.12903 -5.33825 1.97825 
35.096 8.92096 41.7426 4.06161 -9.92418 -1.04258 -175.983 -7.64713 91.5086 -21.1012 36.7379 3.95357 91.1862 23.1425 1.20054 6.32126 -12.6658 2.0256 179.37 -14.6872 93.4158 -10.3794 -19.3948 -6.97952 87.056 -22.5532 -5.20065 40.6427 -4.8748 -3.73323 1.28213 9.25735 -91.1909 8.37579 2.03376 -2.47844 -3.29612 1.92274 -2.5655 -25.8332 2.68448 -1.75273 -5.82061 2.68449 -1.75274 105.59 18.5299 -47.2431 20.6989 -8.38792 16.5308 -12.3128 5.52237 -126.331 75.8842 -50.6569 -67.0294 -69.6793 -16.5683 116.713 -23.4083 30.8637 -35.9858 133.317 33.4723 -94.7772 -7.12652 9.67963 -65.3963 68.1045 3.34839 10.7293 -7.2981 -5.38194 1.94913 
35.1092 8.93361 41.7424 4.12202 -9.86798 -1.02967 -176.025 -7.53017 91.4913 -21.2043 36.784 3.98971 91.1363 23.0995 1.19923 7.94607 -12.7843 3.53179 179.464 -14.6175 93.4826 -10.3867 -19.3369 -7.04025 86.8808 -22.4717 -5.33736 41.0422 -5.03509 -4.00191 1.27076 9.2303 -91.1842 8.42949 2.01339 -2.46559 -3.24238 1.90296 -2.55176 -25.7793 2.66119 -1.74659 -5.76672 2.6612 -1.7466 105.584 18.4875 -47.4435 20.6776 -8.82199 15.6172 -14.8532 7.0574 -125.52 69.799 -51.132 -73.3381 -69.7728 -16.7117 116.439 -23.3138 30.7339 -35.5494 133.676 33.4539 -94.7695 -7.06645 9.67042 -65.4874 67.9544 3.34295 10.6983 -7.41714 -5.36704 2.18651 
35.0976 8.93785 41.8027 4.28709 -9.81766 -1.07012 -176.034 -7.55675 91.5003 -20.934 36.8901 3.94363 91.1048 22.9628 0.965303 7.12182 -13.2715 3.52601 179.528 -14.448 93.4576 -10.3897 -19.2412 -7.09815 86.1985 -21.6425 -4.81608 42.6355 -5.63835 -5.59033 1.23533 9.20561 -91.1788 8.47808 1.94448 -2.45219 -3.19388 1.83471 -2.53536 -25.7299 2.59144 -1.75454 -5.71731 2.59144 -1.75456 105.589 18.3846 -47.7143 20.7369 -8.82848 15.6455 -15.3824 7.36373 -125.335 68.4155 -51.1812 -74.7742 -69.8615 -16.6814 116.237 -23.3424 30.8876 -34.96 137.507 32.8791 -96.1496 -6.55176 9.94741 -67.8929 67.7982 3.26707 10.7691 -7.46288 -5.44828 1.85578 
35.0957 8.94173 41.7557 4.14439 -9.81869 -1.05788 -176.045 -7.49979 91.4569 -21.1678 36.8614 3.98614 90.9487 23.0876 1.43475 6.96931 -12.4248 2.21161 179.654 -14.5666 93.576 -10.4179 -19.249 -7.20204 86.786 -22.2554 -5.09505 40.9306 -4.8752 -4.91833 1.25445 9.18446 -91.1631 8.52088 1.98909 -2.42523 -3.15099 1.88045 -2.51039 -25.688 2.62589 -1.71541 -5.67538 2.62589 -1.7154 105.593 18.2287 -48.1542 20.7928 -8.59538 17.0343 -14.2285 6.76853 -126.029 71.8826 -51.3327 -71.5467 -69.9803 -16.5699 115.99 -23.283 30.657 -34.8782 132.822 33.4471 -94.3366 -7.11932 9.61235 -65.2518 67.6418 3.24678 10.6759 -7.4873 -5.37806 1.88687 
35.1074 8.934 41.7253 4.19803 -9.87261 -1.07809 -176.063 -7.47818 91.4327 -21.343 36.8034 4.02287 91.0856 23.149 1.3685 6.29023 -11.6253 0.555839 179.686 -14.6777 93.6153 -10.4312 -19.2539 -7.26263 87.2772 -22.8337 -5.47727 40.0799 -4.58539 -3.87663 1.23225 9.16756 -91.1561 8.55409 1.9475 -2.40981 -3.11777 1.83958 -2.49314 -25.6544 2.5816 -1.7132 -5.64172 2.5816 -1.71321 105.559 18.2586 -48.3972 20.8541 -8.87051 16.8942 -14.9005 7.12345 -125.641 69.9819 -51.2757 -73.3293 -70.0916 -16.6254 115.705 -23.3806 30.4455 -34.2488 134.506 33.3015 -95.09 -6.63603 9.52919 -66.2125 67.4896 3.25235 10.6079 -7.672 -5.30118 1.7907 
35.088 8.95328 41.7198 4.10608 -9.80768 -1.03733 -176.122 -7.4232 91.4636 -21.3208 36.4082 4.09687 91.5585 23.0799 0.572881 7.42226 -12.8107 3.13036 179.848 -14.5993 93.7539 -10.4514 -19.2295 -7.34638 87.0686 -22.8143 -5.75405 40.2284 -4.69592 -3.57651 1.23335 9.13795 -91.1514 8.61349 1.95104 -2.4026 -3.05838 1.84345 -2.48608 -25.5951 2.5828 -1.70524 -5.58245 2.5828 -1.70525 105.563 18.16 -48.659 20.9417 -8.61387 17.1699 -14.9017 7.13333 -125.672 71.2964 -51.3762 -72.1645 -70.2077 -16.7054 115.399 -23.1252 30.3684 -33.7674 132.7 33.1913 -93.9111 -7.12754 9.68971 -65.6709 67.2504 3.16555 10.5195 -7.78783 -5.28246 1.73639 
35.1144 8.96975 41.7313 4.24116 -9.92698 -0.993435 -176.049 -7.41989 91.5254 -21.5024 36.7539 4.07395 91.3054 23.0919 0.96689 7.20885 -12.6015 2.65959 179.876 -14.7108 93.8046 -10.4299 -19.0686 -7.36042 87.1243 -22.8124 -5.67423 40.041 -4.50313 -4.3686 1.21701 9.12188 -91.145 8.64511 1.92097 -2.38897 -3.02676 1.814 -2.47117 -25.5632 2.55003 -1.7013 -5.55051 2.55003 -1.70131 105.559 18.0288 -49.0766 20.9687 -8.83177 17.2415 -15.6711 7.59463 -125.45 70.0649 -51.7531 -73.8157 -70.3739 -16.6952 115.004 -23.0953 30.1284 -33.4541 136.384 32.9724 -95.6958 -6.33407 9.6302 -67.4403 67.0981 3.06524 10.6653 -7.85154 -5.44194 1.37744 
35.1118 8.96821 41.7341 4.09154 -9.92093 -1.06393 -176.001 -7.59403 91.4793 -21.1188 36.8929 3.96148 91.0759 23.1356 1.35106 6.06644 -12.337 1.37119 179.903 -14.661 93.7364 -10.4725 -19.2135 -7.43914 86.8574 -22.5531 -5.59762 40.7677 -4.91377 -3.91012 1.21318 9.08892 -91.1298 8.71102 1.9193 -2.36077 -2.96083 1.81357 -2.44293 -25.4975 2.53997 -1.67489 -5.48487 2.53996 -1.6749 105.547 17.8988 -49.5705 21.0964 -8.76473 17.589 -15.9516 7.74329 -125.311 69.1419 -51.731 -74.7055 -70.5055 -16.7698 114.664 -23.2672 29.6767 -32.8636 132.754 33.2071 -94.1582 -6.84748 9.47648 -65.605 66.8816 3.11557 10.5742 -7.83527 -5.31308 1.55209 
35.1072 8.95585 41.7575 4.08867 -9.92691 -1.05351 -176.027 -7.68941 91.4828 -20.9865 36.7855 3.9991 90.9385 23.0315 1.33502 7.27117 -11.9039 1.73389 179.968 -14.6378 93.7527 -10.472 -19.1403 -7.47852 86.6951 -22.1704 -5.11226 41.6214 -5.37364 -3.43425 1.20272 9.05835 -91.1134 8.77198 1.90498 -2.32935 -2.8998 1.80065 -2.4109 -25.4366 2.51687 -1.64921 -5.42397 2.51687 -1.64922 105.541 17.802 -49.8914 21.2698 -8.74497 18.0744 -15.5842 7.46029 -125.199 70.1644 -51.9269 -73.9259 -70.6959 -16.7353 114.218 -23.0206 29.6422 -32.1951 132.498 33.0927 -93.8415 -6.82408 9.48257 -65.8193 66.6528 3.12188 10.4511 -7.96622 -5.19684 1.64003 
35.1413 8.94092 41.8213 4.11625 -9.96054 -1.03955 -175.965 -7.7914 91.5141 -20.7675 36.9095 3.90811 90.9649 22.9884 1.20194 4.90296 -12.6382 0.861112 179.985 -14.5533 93.6554 -10.3941 -18.52 -7.48912 86.4218 -21.1794 -3.53565 43.4676 -5.88228 -7.41153 1.18919 9.02688 -91.0988 8.83453 1.88374 -2.30093 -2.83723 1.78067 -2.38158 -25.374 2.48807 -1.62849 -5.36139 2.48808 -1.62851 105.556 17.5554 -50.4315 21.3376 -8.16783 19.6317 -14.1418 6.7249 -126.088 75.2171 -51.3751 -68.4579 -70.8592 -16.7361 113.825 -22.8056 29.6028 -31.8188 132.008 33.3488 -93.681 -6.96652 9.50618 -65.5388 66.4264 2.8312 10.2832 -8.08869 -5.3044 1.57519 
35.1055 8.94518 41.8188 4.19613 -9.95073 -1.03989 -175.985 -7.82182 91.5405 -20.696 37.3272 3.95626 90.6833 22.9932 1.61198 6.80828 -12.4727 2.15648 -179.935 -14.5493 93.7428 -10.3942 -18.4641 -7.5348 86.2212 -21.0785 -3.67058 43.1087 -5.838 -5.98296 1.15837 8.98827 -91.0881 8.91112 1.82619 -2.27809 -2.7607 1.72419 -2.35622 -25.2969 2.42633 -1.62402 -5.28427 2.42632 -1.62401 105.553 17.3804 -50.9169 21.4992 -8.63228 19.0464 -15.7335 7.54033 -125.131 69.1871 -51.8204 -74.7728 -71.0268 -16.6893 113.435 -23.0804 29.1535 -31.0824 132.276 33.0848 -93.7936 -6.89911 9.53461 -65.8786 66.152 2.75468 10.3032 -8.13545 -5.33049 1.21546 
35.1415 8.95452 41.8109 4.04939 -10.0282 -1.07645 -176.01 -7.99502 91.4678 -20.526 37.0534 3.93843 90.6109 22.9343 1.57515 6.45979 -12.1138 1.37623 -179.986 -14.6094 93.6268 -10.425 -18.6638 -7.55845 86.1565 -20.8246 -3.27283 43.8877 -6.11635 -7.22056 1.16139 8.95603 -91.0675 8.97564 1.84068 -2.24012 -2.69606 1.74034 -2.31892 -25.2329 2.42873 -1.58342 -5.22022 2.42873 -1.58341 105.515 17.2577 -51.5747 21.6255 -8.46382 20.5191 -13.8076 6.40821 -125.752 74.9397 -51.8737 -69.2858 -71.2205 -16.9106 112.906 -22.5833 28.9133 -30.5692 131.692 33.0703 -93.347 -7.03229 9.57521 -65.7775 65.8465 2.81787 10.231 -8.17189 -5.19289 1.32615 
35.1308 8.9517 41.8313 4.07523 -10.1034 -1.02033 -175.971 -8.13593 91.5245 -20.4378 37.0855 3.96283 90.4467 22.9278 1.79488 6.33408 -11.6616 0.645428 -179.911 -14.6795 93.6959 -10.3798 -18.2517 -7.57827 86.2348 -20.5495 -2.56195 43.8034 -6.0964 -6.96639 1.1488 8.91844 -91.0513 9.0505 1.82197 -2.2089 -2.62117 1.72301 -2.28692 -25.158 2.40151 -1.55927 -5.14541 2.40151 -1.55927 105.503 17.0293 -52.2472 21.7338 -8.34845 21.3919 -14.5073 6.90594 -125.826 73.4361 -51.9343 -70.768 -71.4471 -16.8036 112.39 -22.8255 28.3448 -30.005 135.362 32.828 -95.3097 -6.05 9.43013 -67.88 65.5158 2.82655 10.0972 -8.20134 -5.0529 1.39914 
35.1367 8.97536 41.8375 4.08397 -10.1739 -0.971097 -175.93 -8.10668 91.6128 -20.5516 36.8798 3.94539 90.7291 22.8327 1.21324 5.75733 -12.0613 0.740961 -179.902 -14.7205 93.7538 -10.3931 -18.3973 -7.55713 86.0472 -20.6466 -3.0423 44.4796 -6.37436 -7.7777 1.12006 8.87796 -91.0457 9.13083 1.76627 -2.19633 -2.54089 1.66792 -2.2719 -25.0771 2.34461 -1.56403 -5.06448 2.34461 -1.56404 105.456 16.9002 -52.9635 21.9005 -8.24856 21.3016 -16.7403 8.23323 -125.16 69.0009 -52.1957 -75.4014 -71.667 -17.0673 111.791 -22.9279 27.5378 -29.046 132.763 32.8965 -93.9394 -5.62243 8.98374 -68.2406 65.1657 2.64827 10.0398 -8.27833 -5.11184 1.10628 
35.1475 8.98358 41.7681 4.07655 -10.1081 -1.01217 -175.965 -7.81524 91.5229 -21.0475 37.223 3.97354 90.5949 23.0411 1.83845 6.35508 -11.9255 1.02483 -179.94 -14.7784 93.767 -10.3976 -18.3969 -7.56384 86.9146 -21.7528 -3.91726 42.021 -5.38763 -5.07731 1.09385 8.8187 -91.0273 9.24883 1.72097 -2.15981 -2.42292 1.62428 -2.23344 -24.9588 2.29043 -1.54282 -4.94625 2.29044 -1.54282 105.418 16.6823 -53.7894 22.0759 -7.9872 22.2282 -15.9593 7.76118 -125.352 72.3399 -52.508 -72.4806 -71.9007 -17.0052 111.245 -22.9746 27.3379 -28.1151 133.254 32.9762 -94.5948 -6.16896 9.239 -66.8987 64.7484 2.65266 9.95744 -8.32428 -4.99772 1.06037 
35.1316 8.97863 41.7717 3.98561 -10.223 -1.00111 -175.904 -8.06067 91.579 -20.8337 37.2023 3.95115 90.5496 23.0284 1.86972 6.46096 -11.8287 0.973776 -179.921 -14.8266 93.7476 -10.3876 -18.2722 -7.57423 86.8515 -21.5008 -3.48677 42.9807 -5.67839 -6.93479 1.09304 8.77897 -90.997 9.32834 1.73209 -2.10288 -2.3433 1.63789 -2.17704 -24.88 2.28394 -1.48515 -4.86734 2.28395 -1.48515 105.433 16.2836 -54.5224 22.2253 -7.83543 23.2865 -16.1509 7.92666 -125.462 72.6636 -52.4727 -72.1274 -72.2128 -16.981 110.499 -22.7091 26.7333 -27.1942 135.787 32.3322 -95.1471 -3.72093 8.10404 -71.477 64.2772 2.48965 9.71596 -8.34622 -4.92828 1.21508 
35.1431 8.97442 41.8298 4.00772 -10.136 -0.999898 -175.937 -8.11259 91.5563 -20.5223 37.2226 3.9505 90.3292 22.9272 1.96678 5.99056 -11.1855 -0.293449 -179.965 -14.6616 93.6523 -10.3669 -18.2208 -7.52388 86.2229 -20.5736 -2.58475 44.0934 -6.25013 -6.90359 1.07443 8.71322 -90.9703 9.45935 1.70564 -2.05149 -2.21221 1.61372 -2.12453 -24.749 2.24326 -1.44409 -4.73634 2.24327 -1.44408 105.437 15.964 -55.1461 22.4056 -7.84391 23.2644 -17.0661 8.37633 -124.924 71.6114 -52.8735 -73.6175 -72.5254 -16.8892 109.766 -23.026 26.0335 -26.1324 132.868 32.7127 -94.3708 -5.02045 8.54612 -68.3355 63.8139 2.39066 9.54701 -8.4454 -4.83737 1.08805 
35.1282 8.96825 41.8323 4.03865 -10.1435 -0.97533 -175.893 -8.07714 91.5954 -20.6006 37.2732 3.91388 90.3192 22.9509 2.03159 6.20731 -11.4861 0.294833 -179.99 -14.7079 93.6923 -10.3895 -18.4949 -7.48577 86.2004 -20.707 -2.9176 43.8494 -6.05794 -7.64998 1.04348 8.65127 -90.9546 9.58265 1.64975 -2.01934 -2.08893 1.5593 -2.08997 -24.6253 2.18031 -1.43023 -4.6127 2.18031 -1.43022 105.415 15.6373 -55.9554 22.6126 -8.13006 23.5756 -17.5608 8.54533 -124.442 70.1147 -53.2139 -75.4926 -72.8247 -17.06 109.006 -22.1798 26.6684 -25.0229 130.267 32.6427 -92.6488 -6.65955 9.3219 -66.3761 63.2558 2.29281 9.44694 -8.43972 -4.78983 1.01674 
